<?xml version="1.0" encoding="UTF-8" standalone="no"?>
<!DOCTYPE svg PUBLIC "-//W3C//DTD SVG 1.1//EN" "http://www.w3.org/Graphics/SVG/1.1/DTD/svg11.dtd">
<!-- HestiaLabs logo only -->
<svg role="img" aria-label="‹HestiaLabs› logo"
    width="100%" height="100%" viewBox="0 0 180 180"
    version="1.1" xmlns="http://www.w3.org/2000/svg"
    xmlns:xlink="http://www.w3.org/1999/xlink" xml:space="preserve">
    <g transform="matrix(1,0,0,1,24.62,19.64)">
        <path d="M126.79,38C122.266,44.974 114.498,49.195 106.185,49.195C101.43,49.195 96.776,47.814 92.79,45.22C91.667,44.493 90.607,43.673 89.62,42.77C88.633,41.867 89.46,42.61 89.15,42.34C87.63,41.05 82.6,37.34 76.47,38.34C74.171,38.731 71.912,39.326 69.72,40.12C67.72,40.8 66.72,41.23 65.01,41.94C57.18,45.24 57.57,51.74 57.01,54.22C56.69,56.061 56.191,57.866 55.52,59.61C55.147,60.575 54.724,61.52 54.25,62.44C53.35,65.14 48.59,72.58 54.01,82.96C55.18,85.21 56.89,88.69 58.34,91.18C59.674,93.734 61.302,96.124 63.19,98.3C69.86,106.03 75.55,105.16 77.81,105.98C85.692,107.885 91.29,114.998 91.29,123.107C91.29,132.773 83.336,140.727 73.67,140.727C64.004,140.727 56.05,132.773 56.05,123.107C56.05,121.717 56.214,120.331 56.54,118.98C56.63,118.59 56.76,118.21 56.88,117.84L56.88,117.72C56.887,117.67 56.887,117.62 56.88,117.57C56.928,117.443 56.969,117.312 57,117.18C58.175,112.357 57.826,107.286 56,102.67C54.938,99.724 53.542,96.909 51.84,94.28C50.71,92.49 49.45,90.48 47.22,87.28C40.49,77.7 33.06,78.4 30.22,77.97C29.723,77.996 29.226,78.009 28.728,78.009C12.984,78.009 0.028,65.053 0.028,49.309C0.028,33.564 12.984,20.609 28.728,20.609C32.239,20.609 35.721,21.253 39,22.51C42.169,23.73 45.097,25.501 47.65,27.74L48.18,28.23L48.56,28.58C48.72,28.75 48.9,28.92 49.09,29.1C51.56,31.4 56,35 62.68,33.48C64.48,33.08 65.57,32.82 67.58,32.24C69.826,31.626 72.011,30.809 74.11,29.8C79.81,27.08 81.79,20.8 82.27,18.95C82.273,18.887 82.273,18.823 82.27,18.76C82.27,18.67 82.27,18.6 82.32,18.54C82.37,18.48 82.32,18.54 82.32,18.49C82.316,18.464 82.316,18.436 82.32,18.41C85.222,7.747 94.977,0.292 106.028,0.292C119.507,0.292 130.598,11.383 130.598,24.862C130.598,29.513 129.277,34.07 126.79,38Z" style="fill:rgb(88,83,158);fill-rule:nonzero;"/>
    </g>
    <g transform="matrix(1,0,0,1,24.62,19.64)">
        <ellipse cx="80.79" cy="71.74" rx="14.14" ry="13.99" style="fill:rgb(243,149,6);"/>
    </g>
</svg>