<?xml version="1.0" encoding="utf-8"?>
<!-- Generator: Adobe Illustrator 24.0.1, SVG Export Plug-In . SVG Version: 6.00 Build 0)  -->
<svg version="1.1" id="Calque_1" xmlns="http://www.w3.org/2000/svg" xmlns:xlink="http://www.w3.org/1999/xlink" x="0px" y="0px"
	 viewBox="0 0 800 250" style="enable-background:new 0 0 800 250;" xml:space="preserve">
<style type="text/css">
	.st0{fill:#EC6360;}
	.st1{fill:#FDCA65;}
	.st2{fill:#020203;}
	.st3{fill:#FFFFFF;}
</style>
<g id="vectorisé">
	<g>
		<path class="st0" d="M538.3,182h5v0.7l-1.4,0.5l0,0l2.7,8.3l2.4-6.5l-0.6-1.9l-1.4-0.5V182h5v0.7l-1.7,0.5l0,0l2.6,8.3l2.9-8.3
			l0,0l-1.7-0.5V182h4.3v0.7l-1.7,0.5l-3.9,10.8h-0.8l-2.5-7.5l-2.7,7.5h-0.9l-3.8-10.8l-1.7-0.5L538.3,182L538.3,182z"/>
		<path class="st0" d="M556,189.7c0-0.6,0.1-1.2,0.4-1.7c0.2-0.5,0.5-0.9,1-1.3s0.8-0.7,1.3-0.9c0.5-0.2,1.1-0.4,1.7-0.4
			c1.3,0,2.3,0.4,3,1.2c0.7,0.7,1,1.7,1,2.9v0.1h-6.3c0,1.2,0.2,2,0.8,2.6c0.6,0.6,1.3,0.8,2.3,0.8c0.5,0,0.9-0.1,1.3-0.2
			c0.4-0.1,0.8-0.4,1.1-0.6l0.5,0.5c-0.8,0.9-1.9,1.3-3.3,1.3c-0.6,0-1.2-0.1-1.8-0.2c-0.6-0.2-1.1-0.5-1.4-0.8
			c-0.5-0.4-0.7-0.8-0.9-1.4C556.1,191,556,190.4,556,189.7L556,189.7z M562.4,188.7c0-0.7-0.2-1.3-0.6-1.8s-0.8-0.7-1.5-0.7
			c-0.6,0-1.2,0.2-1.7,0.7c-0.5,0.5-0.7,1.1-0.7,1.8H562.4z"/>
		<path class="st0" d="M570.3,191.6c0-0.7,0.2-1.2,0.7-1.7c0.5-0.5,1.1-0.8,1.9-1.1c0.8-0.2,1.8-0.4,2.7-0.4c0-0.7-0.2-1.2-0.6-1.5
			c-0.5-0.4-1-0.6-1.7-0.6c-1,0-1.7,0.5-2.3,1.3l-0.6-0.5c0.2-0.5,0.7-0.9,1.2-1.3c0.5-0.4,1.2-0.5,2-0.5c1.1,0,2,0.4,2.6,0.9
			s1,1.5,1,2.6v3.8l1.4,0.5v0.6H576l-0.1-1.2c-0.2,0.4-0.5,0.7-0.9,1.1c-0.5,0.4-1.1,0.5-1.7,0.5c-0.8,0-1.5-0.2-2.1-0.7
			C570.6,192.9,570.3,192.3,570.3,191.6L570.3,191.6z M572,191.6c0,0.5,0.1,0.8,0.5,1.2c0.2,0.2,0.7,0.4,1.2,0.4
			c0.6,0,1.1-0.2,1.4-0.6c0.4-0.4,0.6-0.9,0.6-1.5v-1.8c-1.2,0-2.1,0.2-2.7,0.7C572.4,190.3,572.1,190.9,572,191.6L572,191.6z"/>
		<path class="st0" d="M580.4,193.1l1.3-0.5v-5.9l-1.3-0.5v-0.6l2.9-0.1v2c0.2-0.6,0.6-1.2,0.9-1.7c0.5-0.5,1-0.7,1.7-0.7
			c0.4,0,0.7,0.1,1,0.2l-0.4,1.5c-0.4-0.2-0.8-0.4-1.2-0.4c-1,0-1.5,0.7-2,2.1v3.8l1.4,0.5v0.6h-4.3L580.4,193.1L580.4,193.1z"/>
		<path class="st0" d="M588,189.7c0-0.6,0.1-1.2,0.4-1.7c0.2-0.5,0.5-0.9,1-1.3c0.5-0.4,0.8-0.7,1.3-0.9c0.5-0.2,1.1-0.4,1.7-0.4
			c1.3,0,2.3,0.4,3,1.2c0.7,0.7,1,1.7,1,2.9v0.1h-6.3c0,1.2,0.2,2,0.8,2.6c0.6,0.6,1.3,0.8,2.3,0.8c0.5,0,1-0.1,1.3-0.2
			c0.4-0.1,0.8-0.4,1.1-0.6l0.5,0.5c-0.8,0.9-1.9,1.3-3.3,1.3c-0.6,0-1.2-0.1-1.8-0.2c-0.6-0.1-1.1-0.5-1.4-0.8
			c-0.5-0.4-0.7-0.8-1-1.4C588.1,191,588,190.4,588,189.7L588,189.7z M594.4,188.7c0-0.7-0.2-1.3-0.6-1.8c-0.4-0.5-0.8-0.7-1.5-0.7
			c-0.6,0-1.2,0.2-1.7,0.7s-0.7,1.1-0.7,1.8H594.4z"/>
		<path class="st0" d="M602.3,185.9l1.7-0.2v-2.1l1.5-0.2v2.4h1.9v0.9h-1.9v5.3c0,0.2,0.1,0.5,0.2,0.7c0.1,0.1,0.4,0.2,0.6,0.2
			c0.4,0,0.7-0.1,1-0.4l0.4,0.6c-0.5,0.4-1.1,0.6-1.8,0.6c-0.6,0-1.1-0.2-1.4-0.5c-0.4-0.4-0.6-0.8-0.6-1.4v-5.2h-1.5V185.9z"/>
		<path class="st0" d="M609.4,193.1l1.3-0.5v-9.7l-1.3-0.5V182l2.9-0.1v4.8c0.2-0.4,0.6-0.7,0.9-0.9c0.5-0.2,1-0.4,1.5-0.4
			c1,0,1.7,0.2,2.1,0.7c0.6,0.5,0.8,1.2,0.8,1.9v4.6l1.4,0.5v0.6h-4.3V193l1.3-0.5v-4.4c0-0.6-0.1-1.2-0.5-1.5
			c-0.4-0.4-0.8-0.6-1.4-0.6c-0.5,0-1,0.1-1.3,0.5c-0.4,0.4-0.6,0.7-0.7,1.2v4.8l1.4,0.5v0.6h-4.3L609.4,193.1z"/>
		<path class="st0" d="M620.8,189.7c0-0.6,0.1-1.2,0.4-1.7c0.2-0.5,0.5-0.9,1-1.3s0.8-0.7,1.3-0.9c0.5-0.2,1.1-0.4,1.7-0.4
			c1.3,0,2.3,0.4,3,1.2c0.7,0.7,1,1.7,1,2.9v0.1h-6.3c0,1.2,0.2,2,0.8,2.6c0.6,0.6,1.3,0.8,2.3,0.8c0.5,0,1-0.1,1.3-0.2
			c0.4-0.1,0.8-0.4,1.1-0.6l0.5,0.5c-0.8,0.9-1.9,1.3-3.3,1.3c-0.6,0-1.2-0.1-1.8-0.2s-1.1-0.5-1.4-0.8c-0.5-0.4-0.7-0.8-1-1.4
			C620.9,191,620.8,190.4,620.8,189.7L620.8,189.7z M627.2,188.7c0-0.7-0.2-1.3-0.6-1.8c-0.4-0.5-0.8-0.7-1.5-0.7
			c-0.6,0-1.2,0.2-1.7,0.7s-0.7,1.1-0.7,1.8H627.2z"/>
		<path class="st0" d="M635.1,185.9l1.7-0.2v-2.1l1.5-0.2v2.4h1.9v0.9h-1.9v5.3c0,0.2,0.1,0.5,0.2,0.7c0.1,0.1,0.4,0.2,0.6,0.2
			c0.4,0,0.7-0.1,0.9-0.4l0.4,0.6c-0.5,0.4-1.1,0.6-1.8,0.6c-0.6,0-1.1-0.2-1.4-0.5c-0.4-0.4-0.6-0.8-0.6-1.4v-5.2h-1.5V185.9z"/>
		<path class="st0" d="M642.1,191.6c0-0.7,0.2-1.2,0.7-1.7c0.5-0.5,1.1-0.8,1.9-1.1s1.8-0.4,2.7-0.4c0-0.7-0.2-1.2-0.6-1.5
			c-0.5-0.4-1-0.6-1.7-0.6c-1,0-1.7,0.5-2.3,1.3l-0.6-0.5c0.2-0.5,0.7-0.9,1.2-1.3c0.5-0.4,1.2-0.5,2-0.5c1.1,0,2,0.4,2.6,0.9
			s0.9,1.5,0.9,2.6v3.8l1.4,0.5v0.6h-2.7l-0.1-1.2c-0.2,0.4-0.5,0.7-1,1.1c-0.5,0.4-1.1,0.5-1.7,0.5c-0.8,0-1.5-0.2-2.1-0.7
			C642.4,192.9,642.1,192.3,642.1,191.6L642.1,191.6z M643.8,191.6c0,0.5,0.1,0.8,0.5,1.2c0.2,0.2,0.7,0.4,1.2,0.4
			c0.6,0,1.1-0.2,1.4-0.6c0.4-0.4,0.6-0.9,0.6-1.5v-1.8c-1.2,0-2.1,0.2-2.7,0.7C644.2,190.3,643.8,190.9,643.8,191.6L643.8,191.6z"
			/>
		<path class="st0" d="M652.3,193.1l1.3-0.5v-5.9l-1.3-0.5v-0.6l2.9-0.1v2c0.2-0.6,0.6-1.2,1-1.7c0.5-0.5,1-0.7,1.7-0.7
			c0.4,0,0.7,0.1,1,0.2l-0.4,1.5c-0.4-0.2-0.8-0.4-1.2-0.4c-1,0-1.5,0.7-2,2.1v3.8l1.4,0.5v0.6h-4.3L652.3,193.1L652.3,193.1z"/>
		<path class="st0" d="M659.6,192.2c0-0.5,0.1-0.8,0.4-1.1c0.2-0.4,0.6-0.6,0.9-0.8c-0.6-0.5-0.8-1.2-0.8-1.9c0-0.6,0.1-1.2,0.5-1.5
			c0.4-0.4,0.8-0.8,1.3-1.1c0.5-0.2,1.1-0.4,1.7-0.4c0.7,0,1.3,0.1,1.8,0.4l2.4-0.4h0.4v1.2h-1.8c0.5,0.5,0.7,1.1,0.7,1.8
			c0,0.5-0.1,0.8-0.2,1.3c-0.1,0.5-0.5,0.7-0.8,0.9c-0.4,0.2-0.7,0.5-1.1,0.6c-0.4,0.1-0.8,0.2-1.3,0.2c-0.8,0-1.5-0.2-2.1-0.6
			c-0.2,0.1-0.5,0.2-0.6,0.5c-0.1,0.2-0.2,0.5-0.2,0.7c0,0.6,0.6,0.8,1.7,0.8h2.9c0.8,0,1.5,0.2,2.1,0.6c0.6,0.4,0.8,0.9,0.8,1.7
			c0,0.5-0.1,0.8-0.4,1.2c-0.2,0.4-0.6,0.7-1,0.9c-0.4,0.2-0.8,0.5-1.4,0.6c-0.5,0.1-1.1,0.2-1.5,0.2c-0.6,0-1.2-0.1-1.8-0.2
			c-0.5-0.1-0.9-0.4-1.3-0.7c-0.4-0.4-0.5-0.7-0.5-1.1c0-0.4,0.1-0.7,0.2-1.1l1.7-0.2v0.1c-0.2,0.5-0.4,0.8-0.4,1.2
			c0,0.4,0.1,0.7,0.5,0.9c0.4,0.2,0.8,0.4,1.5,0.4c0.4,0,0.7,0,1.1-0.1s0.6-0.2,1-0.4c0.2-0.1,0.5-0.4,0.7-0.6
			c0.1-0.2,0.2-0.5,0.2-0.8c0-0.4-0.1-0.6-0.4-0.7s-0.6-0.2-1.1-0.2h-3.1c-1,0-1.7-0.1-2-0.5C659.9,193.7,659.6,192.8,659.6,192.2
			L659.6,192.2z M661.8,188.4c0,0.6,0.1,1.2,0.5,1.5c0.4,0.4,0.8,0.6,1.4,0.6s1.1-0.2,1.4-0.6c0.4-0.4,0.5-0.9,0.5-1.5
			c0-0.6-0.1-1.2-0.5-1.5s-0.8-0.6-1.4-0.6s-1.1,0.2-1.4,0.6C661.9,187.2,661.8,187.7,661.8,188.4L661.8,188.4z"/>
		<path class="st0" d="M669.8,189.7c0-0.6,0.1-1.2,0.4-1.7c0.2-0.5,0.5-0.9,1-1.3s0.8-0.7,1.3-0.9c0.5-0.2,1.1-0.4,1.7-0.4
			c1.3,0,2.3,0.4,3,1.2c0.7,0.7,1,1.7,1,2.9v0.1h-6.3c0,1.2,0.2,2,0.8,2.6c0.6,0.6,1.3,0.8,2.3,0.8c0.5,0,0.9-0.1,1.3-0.2
			c0.4-0.1,0.8-0.4,1.1-0.6l0.5,0.5c-0.8,0.9-1.9,1.3-3.3,1.3c-0.6,0-1.2-0.1-1.8-0.2s-1.1-0.5-1.4-0.8c-0.5-0.4-0.7-0.8-0.9-1.4
			C670,191,669.8,190.4,669.8,189.7L669.8,189.7z M676.3,188.7c0-0.7-0.2-1.3-0.6-1.8c-0.4-0.5-0.8-0.7-1.5-0.7
			c-0.6,0-1.2,0.2-1.7,0.7s-0.7,1.1-0.7,1.8H676.3z"/>
		<path class="st0" d="M679.6,185.9l1.7-0.2v-2.1l1.5-0.2v2.4h1.9v0.9h-2v5.3c0,0.2,0.1,0.5,0.2,0.7c0.1,0.1,0.4,0.2,0.6,0.2
			c0.4,0,0.7-0.1,0.9-0.4l0.4,0.6c-0.5,0.4-1.1,0.6-1.8,0.6c-0.6,0-1.1-0.2-1.4-0.5c-0.4-0.4-0.6-0.8-0.6-1.4v-5.2h-1.5L679.6,185.9
			z"/>
		<path class="st0" d="M686.5,189.7c0-0.6,0.1-1.2,0.4-1.7c0.2-0.5,0.5-0.9,1-1.3s0.8-0.7,1.3-0.9c0.5-0.2,1.1-0.4,1.7-0.4
			c1.3,0,2.3,0.4,3,1.2c0.7,0.7,1,1.7,1,2.9v0.1h-6.3c0,1.2,0.2,2,0.8,2.6c0.6,0.6,1.3,0.8,2.3,0.8c0.5,0,1-0.1,1.3-0.2
			c0.4-0.1,0.8-0.4,1.1-0.6l0.5,0.5c-0.8,0.9-1.9,1.3-3.3,1.3c-0.6,0-1.2-0.1-1.8-0.2c-0.6-0.2-1.1-0.5-1.4-0.8
			c-0.5-0.4-0.7-0.8-0.9-1.4C686.6,191,686.5,190.4,686.5,189.7L686.5,189.7z M692.9,188.7c0-0.7-0.2-1.3-0.6-1.8
			c-0.4-0.5-0.8-0.7-1.5-0.7c-0.6,0-1.2,0.2-1.7,0.7s-0.7,1.1-0.7,1.8H692.9z"/>
		<path class="st0" d="M696.2,189.7c0-0.7,0.1-1.4,0.5-2.1c0.4-0.6,0.8-1.2,1.5-1.5c0.6-0.4,1.4-0.6,2.1-0.6c1,0,1.8,0.4,2.5,0.9
			V183l-1.3-0.5V182l2.9-0.1v10.7l1.3,0.5v0.6l-2.9,0.2v-0.7c-0.7,0.6-1.5,0.8-2.5,0.8c-0.8,0-1.5-0.2-2.1-0.6
			c-0.6-0.4-1.2-0.9-1.5-1.5C696.4,191.2,696.2,190.5,696.2,189.7L696.2,189.7z M698,189.7c0,1.2,0.2,2,0.7,2.6
			c0.5,0.6,1.1,0.9,2,0.9c0.5,0,0.8-0.1,1.2-0.2c0.4-0.2,0.7-0.5,0.9-0.7v-5c-0.6-0.7-1.3-0.9-2.1-0.9c-0.8,0-1.5,0.4-1.9,0.9
			C698.2,187.8,698,188.6,698,189.7L698,189.7z"/>
		<path class="st0" d="M712.1,191.6c0-0.7,0.2-1.2,0.7-1.7c0.5-0.5,1.1-0.8,1.9-1.1c0.8-0.2,1.8-0.4,2.7-0.4c0-0.7-0.2-1.2-0.6-1.5
			c-0.5-0.4-0.9-0.6-1.7-0.6c-0.9,0-1.7,0.5-2.3,1.3l-0.6-0.5c0.2-0.5,0.7-0.9,1.2-1.3c0.5-0.4,1.2-0.5,2-0.5c1.1,0,2,0.4,2.6,0.9
			c0.6,0.6,0.9,1.5,0.9,2.6v3.8l1.4,0.5v0.6h-2.7l-0.1-1.2c-0.2,0.4-0.5,0.7-1,1.1c-0.5,0.4-1.1,0.5-1.7,0.5c-0.8,0-1.5-0.2-2.1-0.7
			C712.4,192.9,712.1,192.3,712.1,191.6L712.1,191.6z M713.9,191.6c0,0.5,0.1,0.8,0.5,1.2c0.2,0.2,0.7,0.4,1.2,0.4
			c0.6,0,1.1-0.2,1.4-0.6c0.4-0.4,0.6-0.9,0.6-1.5v-1.8c-1.2,0-2.1,0.2-2.7,0.7C714.1,190.3,713.9,190.9,713.9,191.6L713.9,191.6z"
			/>
		<path class="st0" d="M722.2,185.8l2.9-0.1v5.5c0,0.6,0.1,1.2,0.5,1.5c0.4,0.4,0.8,0.6,1.4,0.6c0.5,0,1-0.1,1.3-0.5
			c0.4-0.4,0.6-0.7,0.7-1.2v-4.8l-1.3-0.5v-0.6l2.9-0.1v7.1l1.3,0.5v0.6H729v-1.1c-0.2,0.4-0.6,0.7-1,0.9c-0.5,0.2-1,0.4-1.4,0.4
			c-0.9,0-1.7-0.2-2.1-0.7c-0.6-0.5-0.8-1.2-0.8-1.9v-4.7l-1.3-0.5L722.2,185.8z"/>
		<path class="st0" d="M733.5,189.7c0-0.7,0.1-1.4,0.5-2.1c0.4-0.6,0.8-1.2,1.5-1.5c0.6-0.4,1.4-0.6,2.1-0.6c0.9,0,1.8,0.4,2.5,0.9
			V183l-1.3-0.5V182l2.9-0.1v10.7l1.3,0.5v0.6l-2.9,0.4v-0.7c-0.7,0.6-1.5,0.8-2.5,0.8c-0.8,0-1.5-0.2-2.1-0.6
			c-0.6-0.4-1.2-0.9-1.5-1.5C733.6,191.2,733.5,190.5,733.5,189.7L733.5,189.7z M735.3,189.7c0,1.2,0.2,2,0.7,2.6
			c0.5,0.6,1.1,0.9,2,0.9c0.5,0,0.8-0.1,1.2-0.2c0.4-0.2,0.7-0.5,1-0.7v-5c-0.6-0.7-1.3-0.9-2.1-0.9c-0.8,0-1.5,0.4-1.9,0.9
			C735.5,187.8,735.3,188.6,735.3,189.7L735.3,189.7z"/>
		<path class="st0" d="M744.9,193.1l1.3-0.5v-5.9l-1.3-0.5v-0.6l2.9-0.1v7.1l1.4,0.5v0.6h-4.3L744.9,193.1L744.9,193.1z
			 M745.7,182.7c0-0.2,0.1-0.5,0.4-0.7c0.2-0.2,0.5-0.2,0.7-0.2c0.4,0,0.6,0.1,0.7,0.2c0.2,0.2,0.4,0.5,0.4,0.7s-0.1,0.5-0.4,0.7
			c-0.2,0.2-0.5,0.2-0.7,0.2c-0.4,0-0.6-0.1-0.7-0.2S745.7,183,745.7,182.7L745.7,182.7z"/>
		<path class="st0" d="M750.8,189.7c0-0.6,0.1-1.2,0.4-1.7c0.2-0.5,0.5-0.9,1-1.3s0.8-0.7,1.3-0.9c0.5-0.2,1.1-0.4,1.7-0.4
			c1.3,0,2.3,0.4,3,1.2c0.7,0.7,1,1.7,1,2.9v0.1h-6.3c0,1.2,0.2,2,0.8,2.6c0.6,0.6,1.3,0.8,2.3,0.8c0.5,0,1-0.1,1.3-0.2
			c0.4-0.1,0.8-0.4,1.1-0.6l0.5,0.5c-0.8,0.9-1.9,1.3-3.3,1.3c-0.6,0-1.2-0.1-1.8-0.2s-1.1-0.5-1.4-0.8c-0.5-0.4-0.7-0.8-1-1.4
			C751,191,750.8,190.4,750.8,189.7L750.8,189.7z M757.2,188.7c0-0.7-0.2-1.3-0.6-1.8c-0.4-0.5-0.8-0.7-1.5-0.7
			c-0.6,0-1.2,0.2-1.7,0.7s-0.7,1.1-0.7,1.8H757.2z"/>
		<path class="st0" d="M760.7,193.1l1.3-0.5v-5.9l-1.3-0.5v-0.6l2.7-0.1v1.1c0.2-0.4,0.6-0.7,1-0.9c0.5-0.2,1-0.4,1.5-0.4
			c0.9,0,1.7,0.2,2.1,0.7c0.6,0.5,0.8,1.2,0.8,1.9v4.6l1.4,0.5v0.6H766V193l1.3-0.5v-4.4c0-0.6-0.1-1.2-0.5-1.5
			c-0.4-0.4-0.8-0.6-1.4-0.6c-0.5,0-1,0.1-1.3,0.5c-0.4,0.4-0.6,0.7-0.7,1.2v4.8l1.4,0.5v0.6h-4.3L760.7,193.1z"/>
		<path class="st0" d="M772.2,189.7c0-1.2,0.5-2.3,1.3-3.1c0.8-0.8,1.9-1.2,3.2-1.2c0.2,0,0.4,0,0.6,0c0.2,0,0.4,0,0.5,0
			c0.1,0,0.4,0,0.5,0s0.2,0,0.5,0.1c0.1,0,0.4,0,0.4,0.1c0.1,0,0.2,0,0.4,0.1c0.1,0,0.2,0,0.2,0v2.6h-0.6l-0.6-1.5
			c-0.5-0.5-1.1-0.6-1.9-0.6c-0.5,0-0.8,0.1-1.2,0.2c-0.4,0.2-0.6,0.5-0.8,0.8c-0.2,0.4-0.4,0.7-0.5,1.1c-0.1,0.4-0.1,0.8-0.1,1.2
			c0,1.1,0.2,1.9,0.7,2.6c0.5,0.7,1.2,0.9,2.1,0.9c0.5,0,1-0.1,1.3-0.2c0.4-0.1,0.8-0.4,1.2-0.6l0.4,0.6c-0.4,0.4-0.8,0.6-1.3,0.8
			c-0.5,0.2-1.1,0.4-1.8,0.4c-0.8,0-1.5-0.2-2.3-0.6c-0.7-0.4-1.2-0.8-1.7-1.5C772.2,191.2,772.2,190.5,772.2,189.7L772.2,189.7z"/>
		<path class="st0" d="M781.8,189.7c0-0.6,0.1-1.2,0.4-1.7s0.5-0.9,1-1.3c0.5-0.4,0.8-0.7,1.3-0.9c0.5-0.2,1.1-0.4,1.7-0.4
			c1.3,0,2.3,0.4,3,1.2c0.7,0.7,1,1.7,1,2.9v0.1h-6.3c0,1.2,0.2,2,0.8,2.6c0.6,0.6,1.3,0.8,2.3,0.8c0.5,0,1-0.1,1.3-0.2
			c0.4-0.1,0.8-0.4,1.1-0.6l0.5,0.5c-0.8,0.9-1.9,1.3-3.3,1.3c-0.6,0-1.2-0.1-1.8-0.2c-0.6-0.2-1.1-0.5-1.4-0.8
			c-0.5-0.4-0.7-0.8-1-1.4C781.9,191,781.8,190.4,781.8,189.7L781.8,189.7z M788.2,188.7c0-0.7-0.2-1.3-0.6-1.8
			c-0.4-0.5-0.8-0.7-1.5-0.7c-0.6,0-1.2,0.2-1.7,0.7s-0.7,1.1-0.7,1.8H788.2z"/>
		<path class="st0" d="M791.8,191.1h0.6l0.6,1.5c0.5,0.5,1.1,0.7,1.8,0.7c0.6,0,1.1-0.1,1.4-0.4c0.4-0.2,0.5-0.6,0.5-1.1
			c0-0.2,0-0.4-0.1-0.5s-0.2-0.2-0.4-0.4c-0.1-0.1-0.2-0.2-0.5-0.2c-0.2-0.1-0.4-0.1-0.6-0.2c-0.1,0-0.4-0.1-0.6-0.2
			c-0.8-0.2-1.4-0.6-1.9-0.9c-0.5-0.4-0.7-0.8-0.7-1.5c0-0.7,0.4-1.3,0.8-1.8c0.6-0.5,1.4-0.6,2.4-0.6c0.8,0,1.7,0.1,2.5,0.4v2.3
			H797l-0.6-1.7c-0.5-0.2-0.8-0.4-1.3-0.4c-0.2,0-0.5,0-0.6,0.1c-0.2,0-0.4,0.1-0.6,0.2c-0.2,0.1-0.4,0.2-0.4,0.4
			c-0.1,0.1-0.1,0.4-0.1,0.6c0,0.1,0,0.2,0.1,0.4c0.1,0.1,0.1,0.2,0.2,0.4c0.1,0.1,0.2,0.1,0.2,0.2c0.1,0.1,0.2,0.1,0.4,0.2
			c0.2,0.1,0.4,0.1,0.4,0.1c0.1,0,0.2,0.1,0.5,0.1c0.2,0,0.4,0.1,0.4,0.1c0.8,0.2,1.4,0.6,1.9,0.9c0.5,0.4,0.6,0.8,0.6,1.5
			c0,0.8-0.4,1.4-0.9,1.9c-0.6,0.5-1.5,0.7-2.6,0.7c-0.5,0-1-0.1-1.4-0.2c-0.5-0.1-0.9-0.2-1.3-0.5L791.8,191.1z"/>
	</g>
	<g>
		<path class="st1" d="M279.8,121.1h-4.6c-0.5-4-1.3-7.1-2.7-9c-1.4-1.9-2.9-3.1-4.4-3.6c-1.5-0.5-3.4-0.7-5.5-0.7h-8.3V156
			c0,1.9,0.2,3.4,0.6,4.4c0.4,1.1,1.3,1.9,2.7,2.5c1.4,0.6,3.6,0.8,6.3,0.8v4.5h-33v-4.5c4,0,6.7-0.6,7.8-1.8
			c1.2-1.2,1.8-3.2,1.8-6.1v-48.2h-7c-2.7,0-5,0.2-6.9,0.7c-1.8,0.5-3.4,1.7-4.8,3.6c-1.4,2-2.1,5-2.4,9h-4.6v-18.5h65L279.8,121.1
			L279.8,121.1z"/>
		<path class="st1" d="M338.7,168.3h-24.9v-4.5c2.3,0,3.8-0.4,4.6-1.2c0.8-0.8,1.3-1.9,1.3-3.4v-16.4c0-1.7-0.1-3.1-0.4-4.4
			c-0.2-1.3-0.7-2.5-1.7-3.6c-0.9-1.1-2.3-1.5-4.2-1.5c-1.5,0-3.1,0.4-4.6,1.2s-2.7,1.9-3.6,3.2c-0.9,1.5-1.4,3-1.8,4.3
			c-0.2,1.4-0.4,3.1-0.4,5v8.3c0,2.3,0.1,3.9,0.2,5c0.1,1.1,0.7,1.9,1.5,2.5c0.8,0.6,2.1,0.9,4.2,0.9v4.5h-25.4v-4.5
			c2.1,0,3.8-0.2,4.8-0.7s1.7-1.1,1.9-2c0.2-0.9,0.4-2.4,0.4-4.4v-40.7c0-2.4-0.4-4-1.2-4.9s-2.7-1.3-5.8-1.3v-4.4l19.6-4.2v32.8
			c1.9-2,3.9-3.7,5.9-5.1c2-1.4,4.9-2,8.6-2c1.7,0,3.3,0.2,5,0.7c1.7,0.5,3.2,1.2,4.5,2.1c1.3,0.9,2.4,2,3,3.2c1.3,2.4,2,5.5,2,9.3
			v14.5c0,2.7,0.4,4.6,1.1,5.6c0.7,0.9,2.5,1.5,5.5,1.5v4.6H338.7z"/>
		<path class="st1" d="M387.5,146.9h-29.8c0,0.6,0.1,1.9,0.2,3.9c0.1,2,0.6,4,1.3,6.2c0.7,2.1,2,3.9,3.9,5.3
			c1.9,1.4,4.4,2.1,7.5,2.1c1.7,0,3.8-0.5,6.2-1.3s4.5-2.6,6.3-5.1l3.8,2.6c-3.8,6.2-9.9,9.1-18.2,9.1c-3.7,0-7.1-0.6-10.2-1.7
			c-3.1-1.1-5.7-2.6-7.8-4.5c-2.1-1.9-3.8-4.2-4.9-6.8c-1.2-2.6-1.7-5.3-1.7-8.3c0-3.9,1-7.6,2.9-10.9c1.9-3.3,4.6-5.9,8.1-8
			c3.6-2,7.6-3,12.1-3c4.4,0,8.2,0.9,11.3,2.9c3.1,1.9,5.3,4.4,6.8,7.5C386.7,140.2,387.5,143.5,387.5,146.9z M375.5,142.4
			c0-7.4-3-11-8.8-11c-2.9,0-5,1.1-6.5,3.1s-2.4,4.8-2.5,8.1h17.8V142.4z"/>
		<path class="st1" d="M477.2,146.6l-0.6,21.6h-58.5v-4.5c4,0,6.7-0.6,7.8-1.8s1.8-3.2,1.8-6.1v-41.4c0-1.9-0.2-3.3-0.6-4.4
			c-0.4-1.1-1.2-1.9-2.6-2.5s-3.4-0.9-6.4-0.9v-4.2h54.6l0.8,17.1H469c-0.9-3.8-2.1-6.5-3.4-8.2c-1.3-1.7-2.7-2.6-4.4-3
			s-4-0.6-7.4-0.6h-12.2V131h6.7c2.3,0,4-0.2,5.1-0.6c1.2-0.4,1.9-1.2,2.4-2.3c0.5-1.2,0.7-3,1-5.3h4.6v22h-4.5
			c-0.1-2.4-0.5-4.3-0.9-5.3c-0.5-1.2-1.3-1.9-2.5-2.3c-1.1-0.4-2.9-0.6-5.1-0.6h-6.7v15.6c0,2.6,0.1,4.5,0.2,5.7
			c0.1,1.2,0.5,2.1,1.1,3s1.5,1.4,2.7,1.8c1.3,0.4,3.1,0.6,5.5,0.6h5.3c2.3,0,4.4-0.2,6.4-0.8c2-0.6,4-2,5.9-4.4
			c1.9-2.4,3.3-6.1,4-11h4.4V146.6z"/>
		<path class="st1" d="M532.5,132.9c-1.4,0.2-2.5,0.6-3.2,1.1c-0.8,0.5-1.4,1.3-2.1,2.4s-1.8,3.3-3.3,6.5l-14.3,29.6
			c-3.2,6.5-5.3,10.8-6.5,12.9s-2.5,3.9-3.9,5.1s-3.3,1.9-5.5,1.9c-1.5,0-2.7-0.5-3.9-1.3c-1.1-0.9-1.7-2-1.7-3.4c0-2,0.7-3.4,2-4.3
			s3.1-1.7,5.2-2.3c2.9-0.8,5.1-2.4,6.7-4.6c1.5-2.3,2.9-4.6,3.9-7.4l-18.5-32.7c-0.8-1.5-1.7-2.6-2.4-3.1c-0.7-0.5-1.7-0.7-3-0.7
			v-4.2h23.5v4.5H504c-2.3,0-3.3,0.6-3.3,1.7c0,0.6,0.5,1.8,1.3,3.3l10.2,18.1l7.6-15.4c1.1-2.3,1.5-3.7,1.5-4.5
			c0-0.9-0.5-1.8-1.4-2.3c-0.9-0.6-2.1-0.8-3.3-0.8v-4.5h15.7v4.4H532.5z"/>
		<path class="st1" d="M578.1,146.9h-29.8c0,0.6,0.1,1.9,0.2,3.9c0.1,2,0.6,4,1.3,6.2c0.7,2.1,2,3.9,3.9,5.3s4.4,2.1,7.5,2.1
			c1.7,0,3.8-0.5,6.2-1.3s4.5-2.6,6.3-5.1l3.8,2.6c-3.8,6.2-9.9,9.1-18.2,9.1c-3.7,0-7.1-0.6-10.2-1.7c-3.1-1.1-5.7-2.6-7.8-4.5
			c-2.1-1.9-3.8-4.2-4.9-6.8c-1.2-2.6-1.7-5.3-1.7-8.3c0-3.9,1-7.6,2.9-10.9c1.9-3.3,4.6-5.9,8.1-8c3.6-2,7.6-3,12.1-3
			c4.4,0,8.2,0.9,11.3,2.9c3.1,1.9,5.3,4.4,6.8,7.5C577.3,140.2,578.1,143.5,578.1,146.9z M566.1,142.4c0-7.4-3-11-8.8-11
			c-2.9,0-5,1.1-6.5,3.1c-1.5,2-2.4,4.8-2.5,8.1h17.8V142.4z"/>
		<path class="st1" d="M635.8,148.1c0,3.1-0.6,6.1-1.7,8.7c-1.2,2.7-2.7,5-4.8,7c-2,2-4.4,3.4-7,4.5c-2.6,1.1-5.5,1.5-8.3,1.5
			c-3.4,0-6.4-0.7-8.9-2s-4.5-3.1-6.2-5.2c-3,3-5.1,5.3-6.4,7.2h-3.8v-53.8c0-1.9-0.2-3.2-0.7-4c-0.5-0.8-1.2-1.4-2.1-1.7
			c-1.1-0.2-2.6-0.4-4.8-0.5v-4.4l20.1-4.3v31.5c1.7-1.5,3.6-2.9,5.7-4c2.1-1.2,5-1.8,8.6-1.8c3.3,0,6.2,0.6,8.8,1.8
			c2.6,1.2,4.8,2.9,6.4,4.9s3,4.3,3.8,6.8S635.8,145.4,635.8,148.1z M622.2,147.7c0-4-0.7-7.6-2-10.7c-1.3-3.1-4-4.6-8-4.6
			c-1.4,0-2.9,0.2-4.2,0.8c-1.3,0.6-2.6,1.3-3.8,2.3c-1.2,0.9-2.3,2.1-3.3,3.4v19.8c1.9,2.5,3.9,4.2,5.8,4.9
			c1.9,0.7,3.7,1.1,5.1,1.1c2.7,0,4.9-0.9,6.4-2.7c1.5-1.8,2.6-3.9,3.1-6.4C621.9,153,622.2,150.3,622.2,147.7z"/>
		<path class="st1" d="M693.5,158c0,2.5-0.5,4.5-1.5,6.3c-0.9,1.8-2.4,3-4,3.8s-3.6,1.2-5.7,1.2c-2.7,0-5-0.6-6.8-1.9
			c-1.8-1.3-2.9-2.9-3.2-4.6c-5.3,4.4-10.8,6.5-16.3,6.5c-3.4,0-6.4-0.8-8.5-2.5c-2.3-1.7-3.3-3.9-3.3-6.8c0-2.3,0.6-4.4,1.8-6.3
			c1.2-1.9,3-3.6,5.2-5s5.1-2.7,8.3-3.9c3.2-1.1,7.2-2.3,12-3.6v-2.7c0-2.3-0.6-4.2-1.7-5.5c-1.1-1.3-3.1-2-5.9-2
			c-2.5,0-4.3,0.5-5.3,1.5s-1.8,2.6-2.1,4.8c-0.2,1.5-0.7,2.7-1.4,3.7c-0.7,0.9-2.1,1.4-4.4,1.4c-1.3,0-2.6-0.4-3.6-1.2
			c-1.1-0.8-1.5-1.9-1.5-3.4c0-3,1.7-5.6,4.9-7.8c3.3-2.3,8.3-3.3,15.1-3.3c7.1,0,12,1.2,14.7,3.6c2.6,2.4,4,5.6,4,9.6v15.3
			c0,1.9,0,3.3,0.1,4.3c0.1,1,0.4,1.5,0.8,2c0.5,0.5,1.1,0.7,2,0.7c0.8,0,1.5-0.5,2.3-1.3c0.7-0.8,0.9-1.9,0.9-3.2h3.2V158z
			 M671.2,158.5v-12.1c-6.2,1.9-10.1,3.8-11.8,5.7s-2.5,3.7-2.5,5.5c0,1.5,0.5,2.7,1.3,3.6c0.8,0.8,2.1,1.3,3.8,1.3
			c1.8,0,3.3-0.4,4.8-1.1C668.2,160.6,669.6,159.6,671.2,158.5z"/>
		<path class="st1" d="M722.7,168.3h-27.9v-4.5h2.1c1.9,0,3.2-0.2,4.2-0.8c0.8-0.5,1.4-1.2,1.5-2.1c0.2-0.9,0.2-2.4,0.2-4.2v-41.4
			c0-2.4-0.6-3.8-1.7-4.5c-1.1-0.6-3.2-0.9-6.4-0.9v-4.5l20.5-4.2v55.5c0,1.8,0.1,3.2,0.2,4.2s0.7,1.7,1.5,2.1
			c0.8,0.5,2.3,0.8,4.2,0.8h1.4L722.7,168.3L722.7,168.3z"/>
		<path class="st1" d="M753.8,168.3h-27.9v-4.5h2.1c1.9,0,3.2-0.2,4.2-0.8c0.8-0.5,1.4-1.2,1.5-2.1c0.2-0.9,0.2-2.4,0.2-4.2v-41.4
			c0-2.4-0.6-3.8-1.7-4.5c-1.1-0.6-3.2-0.9-6.4-0.9v-4.5l20.5-4.2v55.5c0,1.8,0.1,3.2,0.2,4.2c0.1,0.9,0.7,1.7,1.5,2.1
			c0.8,0.5,2.3,0.8,4.2,0.8h1.4L753.8,168.3L753.8,168.3z"/>
		<path class="st1" d="M800,156.7c0,2.7-0.8,5.2-2.5,7.1c-1.7,2-3.9,3.4-6.9,4.5s-6.2,1.5-10,1.5c-2.6,0-5.1-0.2-7.7-0.7
			c-2.6-0.5-4.9-1.3-6.8-2.3l-1.9,2.7h-3.8L760,157h4c0.7,2.1,2.4,4.2,4.9,5.8c2.6,1.8,6.3,2.6,11.2,2.6c1.2,0,2.6-0.1,3.9-0.2
			c1.4-0.2,2.7-0.7,4.2-1.4c1.4-0.7,2-2,2-3.8c0-1.4-0.7-2.5-2-3.2c-1.3-0.7-3.8-1.4-7.6-2.4c-4.5-1.2-8.1-2.3-10.9-3.2
			s-5.2-2.5-7.2-4.4c-2-1.9-3-4.4-3-7.4c0-3.8,1.8-6.9,5.2-9.1c3.6-2.3,8.1-3.3,13.8-3.3c3.6,0,6.4,0.2,8.6,0.8
			c2.1,0.6,3.9,1.2,5.3,1.9l1.2-2.5h3.9v11.3h-4c-0.4-1.3-1.2-2.5-2.4-3.7c-1.3-1.1-3-1.9-5-2.5c-2.1-0.6-4.5-0.9-7.2-0.9
			c-2.3,0-4.5,0.2-6.8,0.7s-3.3,1.7-3.3,3.4c0,0.7,0.2,1.3,0.7,1.9c0.5,0.5,1.2,0.9,2.3,1.3c1.1,0.5,3,0.9,5.6,1.7
			c2.7,0.7,4.3,1.1,4.8,1.2c5.2,1.3,9.6,3,12.9,4.9C798.3,148.5,800,151.8,800,156.7z"/>
	</g>
	<g>
		<path class="st0" d="M24.1,134.5c0-49.9,40.5-90.4,90.4-90.4c29.8,0,56.3,14.5,72.7,36.7c-16.3-32.2-49.6-54.4-88.2-54.4
			c-54.7,0-99,44.4-99,99s44.4,99,99,99c2.1,0,4.2-0.1,6.2-0.2C59.6,219.7,24.1,181.3,24.1,134.5z"/>
	</g>
	<circle class="st2" cx="114.6" cy="134" r="78.3"/>
	<circle class="st3" cx="154.4" cy="134.6" r="18.6"/>
</g>
</svg>
