<?xml version="1.0" encoding="utf-8"?>
<!-- Generator: Adobe Illustrator 24.0.1, SVG Export Plug-In . SVG Version: 6.00 Build 0)  -->
<svg version="1.1" xmlns="http://www.w3.org/2000/svg" xmlns:xlink="http://www.w3.org/1999/xlink" x="0px" y="0px"
	 viewBox="0 0 841.9 595.3" style="enable-background:new 0 0 841.9 595.3;" xml:space="preserve">
<style type="text/css">
	.st0{display:none;}
	.st1{display:inline;fill:#EC6360;}
	.st2{font-family:'ArgestaText';}
	.st3{font-size:14.1044px;}
	.st4{display:inline;fill:#FDCA65;}
	.st5{font-family:'Baskerville-SemiBold';}
	.st6{font-size:83.7967px;}
	.st7{display:inline;}
	.st8{fill:#EC6360;}
	.st9{display:inline;fill:#020203;}
	.st10{display:inline;fill:#FFFFFF;}
	.st11{fill:#D3D3D3;}
	.st12{fill:#545454;}
	.st13{fill:#FFFFFF;}
	.st14{fill:#020203;}
</style>
<g id="fichier_normal" class="st0">
	<text transform="matrix(1.044 0 0 1 525.0547 354.9092)" class="st1 st2 st3">We are the targeted audiences</text>
	<text transform="matrix(0.9984 0 0 1 250.6836 333.4717)" class="st4 st5 st6">The Eyeballs</text>
	<g class="st7">
		<path class="st8" d="M92.4,305c0-42,34.1-76.1,76.1-76.1c25.1,0,47.4,12.2,61.2,30.9C216,232.7,187.9,214,155.4,214
			c-46.1,0-83.4,37.4-83.4,83.4s37.4,83.4,83.4,83.4c1.8,0,3.5-0.1,5.2-0.2C122.3,376.8,92.4,344.4,92.4,305z"/>
	</g>
	<circle class="st9" cx="168.6" cy="304.6" r="65.9"/>
	<circle class="st10" cx="202.1" cy="305.1" r="15.7"/>
</g>
<g id="vectorisé">
	<g>
		<path class="st11" d="M525.4,345h4.2v0.6l-1.2,0.4h0l2.3,7l2-5.5l-0.5-1.6l-1.2-0.4V345h4.2v0.6l-1.4,0.4h0l2.2,7l2.4-7h0
			l-1.4-0.4V345h3.6v0.6l-1.4,0.4l-3.3,9.1h-0.7l-2.1-6.3l-2.3,6.3H530l-3.2-9.1l-1.4-0.4V345z"/>
		<path class="st11" d="M540.3,351.5c0-0.5,0.1-1,0.3-1.4c0.2-0.4,0.4-0.8,0.8-1.1s0.7-0.6,1.1-0.8s0.9-0.3,1.4-0.3
			c1.1,0,1.9,0.3,2.5,1c0.6,0.6,0.8,1.4,0.8,2.4v0.1l-5.3,0c0,1,0.2,1.7,0.7,2.2c0.5,0.5,1.1,0.7,1.9,0.7c0.4,0,0.8-0.1,1.1-0.2
			s0.7-0.3,0.9-0.5l0.4,0.4c-0.7,0.8-1.6,1.1-2.8,1.1c-0.5,0-1-0.1-1.5-0.2c-0.5-0.2-0.9-0.4-1.2-0.7c-0.4-0.3-0.6-0.7-0.8-1.2
			C540.4,352.6,540.3,352.1,540.3,351.5L540.3,351.5z M545.7,350.7c0-0.6-0.2-1.1-0.5-1.5s-0.7-0.6-1.3-0.6c-0.5,0-1,0.2-1.4,0.6
			s-0.6,0.9-0.6,1.5H545.7z"/>
		<path class="st11" d="M552.4,353.1c0-0.6,0.2-1,0.6-1.4s0.9-0.7,1.6-0.9s1.5-0.3,2.3-0.3c0-0.6-0.2-1-0.5-1.3
			c-0.4-0.3-0.8-0.5-1.4-0.5c-0.8,0-1.4,0.4-1.9,1.1l-0.5-0.4c0.2-0.4,0.6-0.8,1-1.1s1-0.4,1.7-0.4c0.9,0,1.7,0.3,2.2,0.8
			s0.8,1.3,0.8,2.2v3.2l1.2,0.4v0.5h-2.3l-0.1-1c-0.2,0.3-0.4,0.6-0.8,0.9s-0.9,0.4-1.4,0.4c-0.7,0-1.3-0.2-1.8-0.6
			C552.6,354.2,552.4,353.7,552.4,353.1L552.4,353.1z M553.8,353.1c0,0.4,0.1,0.7,0.4,1c0.2,0.2,0.6,0.3,1,0.3
			c0.5,0,0.9-0.2,1.2-0.5c0.3-0.3,0.5-0.8,0.5-1.3v-1.5c-1,0-1.8,0.2-2.3,0.6C554.1,352,553.9,352.5,553.8,353.1L553.8,353.1z"/>
		<path class="st11" d="M560.9,354.4l1.1-0.4V349l-1.1-0.4v-0.5l2.4-0.1v1.7c0.2-0.5,0.5-1,0.8-1.4c0.4-0.4,0.8-0.6,1.4-0.6
			c0.3,0,0.6,0.1,0.8,0.2l-0.3,1.3c-0.3-0.2-0.7-0.3-1-0.3c-0.8,0-1.3,0.6-1.7,1.8v3.2l1.2,0.4v0.5h-3.6V354.4z"/>
		<path class="st11" d="M567.3,351.5c0-0.5,0.1-1,0.3-1.4s0.4-0.8,0.8-1.1s0.7-0.6,1.1-0.8s0.9-0.3,1.4-0.3c1.1,0,1.9,0.3,2.5,1
			c0.6,0.6,0.8,1.4,0.8,2.4v0.1l-5.3,0c0,1,0.2,1.7,0.7,2.2c0.5,0.5,1.1,0.7,1.9,0.7c0.4,0,0.8-0.1,1.1-0.2s0.7-0.3,0.9-0.5l0.4,0.4
			c-0.7,0.8-1.6,1.1-2.8,1.1c-0.5,0-1-0.1-1.5-0.2s-0.9-0.4-1.2-0.7c-0.4-0.3-0.6-0.7-0.8-1.2C567.4,352.6,567.3,352.1,567.3,351.5
			L567.3,351.5z M572.7,350.7c0-0.6-0.2-1.1-0.5-1.5s-0.7-0.6-1.3-0.6c-0.5,0-1,0.2-1.4,0.6s-0.6,0.9-0.6,1.5H572.7z"/>
		<path class="st11" d="M579.3,348.3l1.4-0.2v-1.8l1.3-0.2v2h1.6v0.8h-1.6v4.5c0,0.2,0.1,0.4,0.2,0.6c0.1,0.1,0.3,0.2,0.5,0.2
			c0.3,0,0.6-0.1,0.8-0.3l0.3,0.5c-0.4,0.3-0.9,0.5-1.5,0.5c-0.5,0-0.9-0.2-1.2-0.4c-0.3-0.3-0.5-0.7-0.5-1.2v-4.4h-1.3L579.3,348.3
			z"/>
		<path class="st11" d="M585.3,354.4l1.1-0.4v-8.2l-1.1-0.4V345l2.4-0.1v4c0.2-0.3,0.5-0.6,0.8-0.8c0.4-0.2,0.8-0.3,1.3-0.3
			c0.8,0,1.4,0.2,1.8,0.6c0.5,0.4,0.7,1,0.7,1.6v3.9l1.2,0.4v0.5h-3.6v-0.5l1.1-0.4v-3.7c0-0.5-0.1-1-0.4-1.3
			c-0.3-0.3-0.7-0.5-1.2-0.5c-0.4,0-0.8,0.1-1.1,0.4c-0.3,0.3-0.5,0.6-0.6,1v4l1.2,0.4v0.5h-3.6L585.3,354.4z"/>
		<path class="st11" d="M594.9,351.5c0-0.5,0.1-1,0.3-1.4s0.4-0.8,0.8-1.1s0.7-0.6,1.1-0.8s0.9-0.3,1.4-0.3c1.1,0,1.9,0.3,2.5,1
			c0.6,0.6,0.8,1.4,0.8,2.4v0.1l-5.3,0c0,1,0.2,1.7,0.7,2.2c0.5,0.5,1.1,0.7,1.9,0.7c0.4,0,0.8-0.1,1.1-0.2s0.7-0.3,0.9-0.5l0.4,0.4
			c-0.7,0.8-1.6,1.1-2.8,1.1c-0.5,0-1-0.1-1.5-0.2s-0.9-0.4-1.2-0.7c-0.4-0.3-0.6-0.7-0.8-1.2C595,352.6,594.9,352.1,594.9,351.5
			L594.9,351.5z M600.3,350.7c0-0.6-0.2-1.1-0.5-1.5s-0.7-0.6-1.3-0.6c-0.5,0-1,0.2-1.4,0.6s-0.6,0.9-0.6,1.5H600.3z"/>
		<path class="st11" d="M606.9,348.3l1.4-0.2v-1.8l1.3-0.2v2h1.6v0.8h-1.6v4.5c0,0.2,0.1,0.4,0.2,0.6c0.1,0.1,0.3,0.2,0.5,0.2
			c0.3,0,0.6-0.1,0.8-0.3l0.3,0.5c-0.4,0.3-0.9,0.5-1.5,0.5c-0.5,0-0.9-0.2-1.2-0.4c-0.3-0.3-0.5-0.7-0.5-1.2v-4.4h-1.3L606.9,348.3
			z"/>
		<path class="st11" d="M612.8,353.1c0-0.6,0.2-1,0.6-1.4s0.9-0.7,1.6-0.9s1.5-0.3,2.3-0.3c0-0.6-0.2-1-0.5-1.3
			c-0.4-0.3-0.8-0.5-1.4-0.5c-0.8,0-1.4,0.4-1.9,1.1l-0.5-0.4c0.2-0.4,0.6-0.8,1-1.1s1-0.4,1.7-0.4c0.9,0,1.7,0.3,2.2,0.8
			s0.8,1.3,0.8,2.2v3.2l1.2,0.4v0.5h-2.3l-0.1-1c-0.2,0.3-0.4,0.6-0.8,0.9s-0.9,0.4-1.4,0.4c-0.7,0-1.3-0.2-1.8-0.6
			C613.1,354.2,612.8,353.7,612.8,353.1L612.8,353.1z M614.3,353.1c0,0.4,0.1,0.7,0.4,1c0.2,0.2,0.6,0.3,1,0.3
			c0.5,0,0.9-0.2,1.2-0.5c0.3-0.3,0.5-0.8,0.5-1.3v-1.5c-1,0-1.8,0.2-2.3,0.6C614.6,352,614.3,352.5,614.3,353.1L614.3,353.1z"/>
		<path class="st11" d="M621.4,354.4l1.1-0.4V349l-1.1-0.4v-0.5l2.4-0.1v1.7c0.2-0.5,0.5-1,0.8-1.4c0.4-0.4,0.8-0.6,1.4-0.6
			c0.3,0,0.6,0.1,0.8,0.2l-0.3,1.3c-0.3-0.2-0.7-0.3-1-0.3c-0.8,0-1.3,0.6-1.7,1.8v3.2l1.2,0.4v0.5h-3.6V354.4z"/>
		<path class="st11" d="M627.6,353.6c0-0.4,0.1-0.7,0.3-0.9c0.2-0.3,0.5-0.5,0.8-0.7c-0.5-0.4-0.7-1-0.7-1.6c0-0.5,0.1-1,0.4-1.3
			s0.7-0.7,1.1-0.9s0.9-0.3,1.4-0.3c0.6,0,1.1,0.1,1.5,0.3l2-0.3h0.3v1h-1.5c0.4,0.4,0.6,0.9,0.6,1.5c0,0.4-0.1,0.7-0.2,1.1
			s-0.4,0.6-0.7,0.8c-0.3,0.2-0.6,0.4-0.9,0.5s-0.7,0.2-1.1,0.2c-0.7,0-1.3-0.2-1.8-0.5c-0.2,0.1-0.4,0.2-0.5,0.4
			c-0.1,0.2-0.2,0.4-0.2,0.6c0,0.5,0.5,0.7,1.4,0.7h2.4c0.7,0,1.3,0.2,1.8,0.5s0.7,0.8,0.7,1.4c0,0.4-0.1,0.7-0.3,1
			s-0.5,0.6-0.8,0.8c-0.3,0.2-0.7,0.4-1.2,0.5c-0.4,0.1-0.9,0.2-1.3,0.2c-0.5,0-1-0.1-1.5-0.2c-0.4-0.1-0.8-0.3-1.1-0.6
			c-0.3-0.3-0.4-0.6-0.4-0.9c0-0.3,0.1-0.6,0.2-0.9l1.4-0.2l0,0.1c-0.2,0.4-0.3,0.7-0.3,1c0,0.3,0.1,0.6,0.4,0.8
			c0.3,0.2,0.7,0.3,1.3,0.3c0.3,0,0.6,0,0.9-0.1c0.3-0.1,0.5-0.2,0.8-0.3c0.2-0.1,0.4-0.3,0.6-0.5c0.1-0.2,0.2-0.4,0.2-0.7
			c0-0.3-0.1-0.5-0.3-0.6c-0.2-0.1-0.5-0.2-0.9-0.2h-2.6c-0.8,0-1.4-0.1-1.7-0.4S627.6,354.1,627.6,353.6L627.6,353.6z M629.4,350.4
			c0,0.5,0.1,1,0.4,1.3c0.3,0.3,0.7,0.5,1.2,0.5s0.9-0.2,1.2-0.5c0.3-0.3,0.4-0.8,0.4-1.3s-0.1-1-0.4-1.3s-0.7-0.5-1.2-0.5
			s-0.9,0.2-1.2,0.5S629.4,349.8,629.4,350.4L629.4,350.4z"/>
		<path class="st11" d="M636.2,351.5c0-0.5,0.1-1,0.3-1.4s0.4-0.8,0.8-1.1s0.7-0.6,1.1-0.8s0.9-0.3,1.4-0.3c1.1,0,1.9,0.3,2.5,1
			c0.6,0.6,0.8,1.4,0.8,2.4v0.1l-5.3,0c0,1,0.2,1.7,0.7,2.2c0.5,0.5,1.1,0.7,1.9,0.7c0.4,0,0.8-0.1,1.1-0.2s0.7-0.3,0.9-0.5l0.4,0.4
			c-0.7,0.8-1.6,1.1-2.8,1.1c-0.5,0-1-0.1-1.5-0.2s-0.9-0.4-1.2-0.7c-0.4-0.3-0.6-0.7-0.8-1.2C636.3,352.6,636.2,352.1,636.2,351.5
			L636.2,351.5z M641.6,350.7c0-0.6-0.2-1.1-0.5-1.5s-0.7-0.6-1.3-0.6c-0.5,0-1,0.2-1.4,0.6s-0.6,0.9-0.6,1.5H641.6z"/>
		<path class="st11" d="M644.4,348.3l1.4-0.2v-1.8l1.3-0.2v2h1.6v0.8H647v4.5c0,0.2,0.1,0.4,0.2,0.6c0.1,0.1,0.3,0.2,0.5,0.2
			c0.3,0,0.6-0.1,0.8-0.3l0.3,0.5c-0.4,0.3-0.9,0.5-1.5,0.5c-0.5,0-0.9-0.2-1.2-0.4c-0.3-0.3-0.5-0.7-0.5-1.2v-4.4h-1.3L644.4,348.3
			z"/>
		<path class="st11" d="M650.2,351.5c0-0.5,0.1-1,0.3-1.4c0.2-0.4,0.4-0.8,0.8-1.1s0.7-0.6,1.1-0.8s0.9-0.3,1.4-0.3
			c1.1,0,1.9,0.3,2.5,1c0.6,0.6,0.8,1.4,0.8,2.4v0.1l-5.3,0c0,1,0.2,1.7,0.7,2.2c0.5,0.5,1.1,0.7,1.9,0.7c0.4,0,0.8-0.1,1.1-0.2
			s0.7-0.3,0.9-0.5l0.4,0.4c-0.7,0.8-1.6,1.1-2.8,1.1c-0.5,0-1-0.1-1.5-0.2c-0.5-0.2-0.9-0.4-1.2-0.7c-0.4-0.3-0.6-0.7-0.8-1.2
			C650.3,352.6,650.2,352.1,650.2,351.5L650.2,351.5z M655.6,350.7c0-0.6-0.2-1.1-0.5-1.5s-0.7-0.6-1.3-0.6c-0.5,0-1,0.2-1.4,0.6
			s-0.6,0.9-0.6,1.5H655.6z"/>
		<path class="st11" d="M658.4,351.5c0-0.6,0.1-1.2,0.4-1.8c0.3-0.5,0.7-1,1.3-1.3c0.5-0.3,1.2-0.5,1.8-0.5c0.8,0,1.5,0.3,2.1,0.8
			v-2.8l-1.1-0.4V345l2.4-0.1v9l1.1,0.4v0.5L664,355v-0.6c-0.6,0.5-1.3,0.7-2.1,0.7c-0.7,0-1.3-0.2-1.8-0.5c-0.5-0.3-1-0.8-1.3-1.3
			C658.6,352.8,658.4,352.2,658.4,351.5L658.4,351.5z M659.9,351.5c0,1,0.2,1.7,0.6,2.2c0.4,0.5,0.9,0.8,1.7,0.8
			c0.4,0,0.7-0.1,1-0.2c0.3-0.2,0.6-0.4,0.8-0.6v-4.2c-0.5-0.6-1.1-0.8-1.8-0.8c-0.7,0-1.3,0.3-1.6,0.8
			C660.1,349.9,659.9,350.6,659.9,351.5L659.9,351.5z"/>
		<path class="st11" d="M671.8,353.1c0-0.6,0.2-1,0.6-1.4s0.9-0.7,1.6-0.9s1.5-0.3,2.3-0.3c0-0.6-0.2-1-0.5-1.3
			c-0.4-0.3-0.8-0.5-1.4-0.5c-0.8,0-1.4,0.4-1.9,1.1l-0.5-0.4c0.2-0.4,0.6-0.8,1-1.1s1-0.4,1.7-0.4c0.9,0,1.7,0.3,2.2,0.8
			s0.8,1.3,0.8,2.2v3.2l1.2,0.4v0.5h-2.3l-0.1-1c-0.2,0.3-0.4,0.6-0.8,0.9s-0.9,0.4-1.4,0.4c-0.7,0-1.3-0.2-1.8-0.6
			C672,354.2,671.8,353.7,671.8,353.1L671.8,353.1z M673.3,353.1c0,0.4,0.1,0.7,0.4,1c0.2,0.2,0.6,0.3,1,0.3c0.5,0,0.9-0.2,1.2-0.5
			c0.3-0.3,0.5-0.8,0.5-1.3v-1.5c-1,0-1.8,0.2-2.3,0.6C673.5,352,673.3,352.5,673.3,353.1L673.3,353.1z"/>
		<path class="st11" d="M680.3,348.2l2.4-0.1v4.6c0,0.5,0.1,1,0.4,1.3c0.3,0.3,0.7,0.5,1.2,0.5c0.4,0,0.8-0.1,1.1-0.4
			c0.3-0.3,0.5-0.6,0.6-1v-4l-1.1-0.4v-0.5l2.4-0.1v6l1.1,0.4v0.5L686,355l0-0.9c-0.2,0.3-0.5,0.6-0.8,0.8c-0.4,0.2-0.8,0.3-1.2,0.3
			c-0.8,0-1.4-0.2-1.8-0.6c-0.5-0.4-0.7-1-0.7-1.6V349l-1.1-0.4L680.3,348.2z"/>
		<path class="st11" d="M689.8,351.5c0-0.6,0.1-1.2,0.4-1.8c0.3-0.5,0.7-1,1.3-1.3c0.5-0.3,1.2-0.5,1.8-0.5c0.8,0,1.5,0.3,2.1,0.8
			v-2.8l-1.1-0.4V345l2.4-0.1v9l1.1,0.4v0.5l-2.4,0.3v-0.6c-0.6,0.5-1.3,0.7-2.1,0.7c-0.7,0-1.3-0.2-1.8-0.5c-0.5-0.3-1-0.8-1.3-1.3
			C689.9,352.8,689.8,352.2,689.8,351.5L689.8,351.5z M691.3,351.5c0,1,0.2,1.7,0.6,2.2c0.4,0.5,0.9,0.8,1.7,0.8
			c0.4,0,0.7-0.1,1-0.2c0.3-0.2,0.6-0.4,0.8-0.6v-4.2c-0.5-0.6-1.1-0.8-1.8-0.8c-0.7,0-1.3,0.3-1.6,0.8
			C691.5,349.9,691.3,350.6,691.3,351.5L691.3,351.5z"/>
		<path class="st11" d="M699.4,354.4l1.1-0.4V349l-1.1-0.4v-0.5l2.4-0.1v6l1.2,0.4v0.5h-3.6V354.4z M700.1,345.6
			c0-0.2,0.1-0.4,0.3-0.6s0.4-0.2,0.6-0.2c0.3,0,0.5,0.1,0.6,0.2c0.2,0.2,0.3,0.4,0.3,0.6c0,0.2-0.1,0.4-0.3,0.6
			c-0.2,0.2-0.4,0.2-0.6,0.2c-0.3,0-0.5-0.1-0.6-0.2S700.1,345.9,700.1,345.6L700.1,345.6z"/>
		<path class="st11" d="M704.4,351.5c0-0.5,0.1-1,0.3-1.4s0.4-0.8,0.8-1.1s0.7-0.6,1.1-0.8s0.9-0.3,1.4-0.3c1.1,0,1.9,0.3,2.5,1
			c0.6,0.6,0.8,1.4,0.8,2.4v0.1l-5.3,0c0,1,0.2,1.7,0.7,2.2c0.5,0.5,1.1,0.7,1.9,0.7c0.4,0,0.8-0.1,1.1-0.2s0.7-0.3,0.9-0.5l0.4,0.4
			c-0.7,0.8-1.6,1.1-2.8,1.1c-0.5,0-1-0.1-1.5-0.2s-0.9-0.4-1.2-0.7c-0.4-0.3-0.6-0.7-0.8-1.2C704.5,352.6,704.4,352.1,704.4,351.5
			L704.4,351.5z M709.8,350.7c0-0.6-0.2-1.1-0.5-1.5s-0.7-0.6-1.3-0.6c-0.5,0-1,0.2-1.4,0.6s-0.6,0.9-0.6,1.5H709.8z"/>
		<path class="st11" d="M712.7,354.4l1.1-0.4V349l-1.1-0.4v-0.5l2.3-0.1l0,0.9c0.2-0.3,0.5-0.6,0.8-0.8c0.4-0.2,0.8-0.3,1.3-0.3
			c0.8,0,1.4,0.2,1.8,0.6c0.5,0.4,0.7,1,0.7,1.6v3.9l1.2,0.4v0.5h-3.6v-0.5l1.1-0.4v-3.7c0-0.5-0.1-1-0.4-1.3
			c-0.3-0.3-0.7-0.5-1.2-0.5c-0.4,0-0.8,0.1-1.1,0.4c-0.3,0.3-0.5,0.6-0.6,1v4l1.2,0.4v0.5h-3.6L712.7,354.4z"/>
		<path class="st11" d="M722.4,351.5c0-1,0.4-1.9,1.1-2.6c0.7-0.7,1.6-1,2.7-1c0.2,0,0.3,0,0.5,0c0.2,0,0.3,0,0.4,0
			c0.1,0,0.3,0,0.4,0c0.1,0,0.2,0,0.4,0.1c0.1,0,0.3,0,0.3,0.1c0.1,0,0.2,0,0.3,0.1c0.1,0,0.2,0,0.2,0l0,2.2h-0.5l-0.5-1.3
			c-0.4-0.4-0.9-0.5-1.6-0.5c-0.4,0-0.7,0.1-1,0.2c-0.3,0.2-0.5,0.4-0.7,0.7c-0.2,0.3-0.3,0.6-0.4,0.9c-0.1,0.3-0.1,0.7-0.1,1
			c0,0.9,0.2,1.6,0.6,2.2s1,0.8,1.8,0.8c0.4,0,0.8-0.1,1.1-0.2s0.7-0.3,1-0.5l0.3,0.5c-0.3,0.3-0.7,0.5-1.1,0.7s-0.9,0.3-1.5,0.3
			c-0.7,0-1.3-0.2-1.9-0.5s-1-0.7-1.4-1.3S722.4,352.2,722.4,351.5L722.4,351.5z"/>
		<path class="st11" d="M730.5,351.5c0-0.5,0.1-1,0.3-1.4c0.2-0.4,0.4-0.8,0.8-1.1s0.7-0.6,1.1-0.8s0.9-0.3,1.4-0.3
			c1.1,0,1.9,0.3,2.5,1c0.6,0.6,0.8,1.4,0.8,2.4v0.1l-5.3,0c0,1,0.2,1.7,0.7,2.2c0.5,0.5,1.1,0.7,1.9,0.7c0.4,0,0.8-0.1,1.1-0.2
			s0.7-0.3,0.9-0.5l0.4,0.4c-0.7,0.8-1.6,1.1-2.8,1.1c-0.5,0-1-0.1-1.5-0.2c-0.5-0.2-0.9-0.4-1.2-0.7c-0.4-0.3-0.6-0.7-0.8-1.2
			C730.6,352.6,730.5,352.1,730.5,351.5L730.5,351.5z M735.9,350.7c0-0.6-0.2-1.1-0.5-1.5s-0.7-0.6-1.3-0.6c-0.5,0-1,0.2-1.4,0.6
			s-0.6,0.9-0.6,1.5H735.9z"/>
		<path class="st11" d="M738.9,352.7h0.5l0.5,1.3c0.4,0.4,0.9,0.6,1.5,0.6c0.5,0,0.9-0.1,1.2-0.3c0.3-0.2,0.4-0.5,0.4-0.9
			c0-0.2,0-0.3-0.1-0.4c-0.1-0.1-0.2-0.2-0.3-0.3c-0.1-0.1-0.2-0.2-0.4-0.2c-0.2-0.1-0.3-0.1-0.5-0.2c-0.1,0-0.3-0.1-0.5-0.2
			c-0.7-0.2-1.2-0.5-1.6-0.8s-0.6-0.7-0.6-1.3c0-0.6,0.3-1.1,0.7-1.5c0.5-0.4,1.2-0.5,2-0.5c0.7,0,1.4,0.1,2.1,0.3v1.9h-0.5
			l-0.5-1.4c-0.4-0.2-0.7-0.3-1.1-0.3c-0.2,0-0.4,0-0.5,0.1c-0.2,0-0.3,0.1-0.5,0.2s-0.3,0.2-0.3,0.3c-0.1,0.1-0.1,0.3-0.1,0.5
			c0,0.1,0,0.2,0.1,0.3s0.1,0.2,0.2,0.3c0.1,0.1,0.2,0.1,0.2,0.2c0.1,0.1,0.2,0.1,0.3,0.2c0.2,0.1,0.3,0.1,0.3,0.1
			c0.1,0,0.2,0.1,0.4,0.1c0.2,0,0.3,0.1,0.3,0.1c0.7,0.2,1.2,0.5,1.6,0.8s0.5,0.7,0.5,1.3c0,0.7-0.3,1.2-0.8,1.6
			c-0.5,0.4-1.3,0.6-2.2,0.6c-0.4,0-0.8-0.1-1.2-0.2c-0.4-0.1-0.8-0.2-1.1-0.4L738.9,352.7z"/>
	</g>
	<g>
		<path class="st12" d="M307.7,293.7h-3.9c-0.4-3.4-1.1-6-2.3-7.6c-1.2-1.6-2.4-2.6-3.7-3c-1.3-0.4-2.9-0.6-4.6-0.6h-7v40.6
			c0,1.6,0.2,2.9,0.5,3.7c0.3,0.9,1.1,1.6,2.3,2.1c1.2,0.5,3,0.7,5.3,0.7v3.8h-27.8v-3.8c3.4,0,5.6-0.5,6.6-1.5c1-1,1.5-2.7,1.5-5.1
			v-40.6h-5.9c-2.3,0-4.2,0.2-5.8,0.6c-1.5,0.4-2.9,1.4-4,3c-1.2,1.7-1.8,4.2-2,7.6h-3.9V278h54.7V293.7z"/>
		<path class="st12" d="M357.3,333.5h-21v-3.8c1.9,0,3.2-0.3,3.9-1c0.7-0.7,1.1-1.6,1.1-2.9V312c0-1.4-0.1-2.6-0.3-3.7
			c-0.2-1.1-0.6-2.1-1.4-3c-0.8-0.9-1.9-1.3-3.5-1.3c-1.3,0-2.6,0.3-3.9,1c-1.3,0.7-2.3,1.6-3,2.7c-0.8,1.3-1.2,2.5-1.5,3.6
			c-0.2,1.2-0.3,2.6-0.3,4.2v7c0,1.9,0.1,3.3,0.2,4.2c0.1,0.9,0.6,1.6,1.3,2.1c0.7,0.5,1.8,0.8,3.5,0.8v3.8h-21.4v-3.8
			c1.8,0,3.2-0.2,4-0.6s1.4-0.9,1.6-1.7c0.2-0.8,0.3-2,0.3-3.7v-34.3c0-2-0.3-3.4-1-4.1c-0.7-0.7-2.3-1.1-4.9-1.1v-3.7l16.5-3.5
			v27.6c1.6-1.7,3.3-3.1,5-4.3c1.7-1.2,4.1-1.7,7.2-1.7c1.4,0,2.8,0.2,4.2,0.6s2.7,1,3.8,1.8c1.1,0.8,2,1.7,2.5,2.7
			c1.1,2,1.7,4.6,1.7,7.8v12.2c0,2.3,0.3,3.9,0.9,4.7c0.6,0.8,2.1,1.3,4.6,1.3V333.5z"/>
		<path class="st12" d="M398.4,315.5h-25.1c0,0.5,0.1,1.6,0.2,3.3c0.1,1.7,0.5,3.4,1.1,5.2c0.6,1.8,1.7,3.3,3.3,4.5
			c1.6,1.2,3.7,1.8,6.3,1.8c1.4,0,3.2-0.4,5.2-1.1s3.8-2.2,5.3-4.3l3.2,2.2c-3.2,5.2-8.3,7.7-15.3,7.7c-3.1,0-6-0.5-8.6-1.4
			c-2.6-0.9-4.8-2.2-6.6-3.8c-1.8-1.6-3.2-3.5-4.1-5.7c-1-2.2-1.4-4.5-1.4-7c0-3.3,0.8-6.4,2.4-9.2c1.6-2.8,3.9-5,6.8-6.7
			c3-1.7,6.4-2.5,10.2-2.5c3.7,0,6.9,0.8,9.5,2.4s4.5,3.7,5.7,6.3C397.8,309.8,398.4,312.6,398.4,315.5z M388.3,311.7
			c0-6.2-2.5-9.3-7.4-9.3c-2.4,0-4.2,0.9-5.5,2.6c-1.3,1.7-2,4-2.1,6.8H388.3z"/>
		<path class="st12" d="M474,315.2l-0.5,18.2h-49.3v-3.8c3.4,0,5.6-0.5,6.6-1.5s1.5-2.7,1.5-5.1v-34.9c0-1.6-0.2-2.8-0.5-3.7
			c-0.3-0.9-1-1.6-2.2-2.1c-1.2-0.5-2.9-0.8-5.4-0.8V278h46l0.7,14.4h-3.8c-0.8-3.2-1.8-5.5-2.9-6.9c-1.1-1.4-2.3-2.2-3.7-2.5
			c-1.4-0.3-3.4-0.5-6.2-0.5H444v19.6h5.6c1.9,0,3.4-0.2,4.3-0.5c1-0.3,1.6-1,2-1.9c0.4-1,0.6-2.5,0.8-4.5h3.9v18.5h-3.8
			c-0.1-2-0.4-3.6-0.8-4.5c-0.4-1-1.1-1.6-2.1-1.9c-0.9-0.3-2.4-0.5-4.3-0.5H444v13.1c0,2.2,0.1,3.8,0.2,4.8c0.1,1,0.4,1.8,0.9,2.5
			c0.5,0.7,1.3,1.2,2.3,1.5c1.1,0.3,2.6,0.5,4.6,0.5h4.5c1.9,0,3.7-0.2,5.4-0.7c1.7-0.5,3.4-1.7,5-3.7c1.6-2,2.8-5.1,3.4-9.3H474z"
			/>
		<path class="st12" d="M520.5,303.7c-1.2,0.2-2.1,0.5-2.7,0.9c-0.7,0.4-1.2,1.1-1.8,2s-1.5,2.8-2.8,5.5l-12,24.9
			c-2.7,5.5-4.5,9.1-5.5,10.9c-1,1.8-2.1,3.3-3.3,4.3s-2.8,1.6-4.6,1.6c-1.3,0-2.3-0.4-3.3-1.1c-0.9-0.8-1.4-1.7-1.4-2.9
			c0-1.7,0.6-2.9,1.7-3.6s2.6-1.4,4.4-1.9c2.4-0.7,4.3-2,5.6-3.9c1.3-1.9,2.4-3.9,3.3-6.2l-15.6-27.5c-0.7-1.3-1.4-2.2-2-2.6
			c-0.6-0.4-1.4-0.6-2.5-0.6V300h19.8v3.8h-1.3c-1.9,0-2.8,0.5-2.8,1.4c0,0.5,0.4,1.5,1.1,2.8l8.6,15.2l6.4-13
			c0.9-1.9,1.3-3.1,1.3-3.8c0-0.8-0.4-1.5-1.2-1.9c-0.8-0.5-1.8-0.7-2.8-0.7V300h13.2V303.7z"/>
		<path class="st12" d="M558.9,315.5h-25.1c0,0.5,0.1,1.6,0.2,3.3c0.1,1.7,0.5,3.4,1.1,5.2s1.7,3.3,3.3,4.5c1.6,1.2,3.7,1.8,6.3,1.8
			c1.4,0,3.2-0.4,5.2-1.1c2-0.7,3.8-2.2,5.3-4.3l3.2,2.2c-3.2,5.2-8.3,7.7-15.3,7.7c-3.1,0-6-0.5-8.6-1.4c-2.6-0.9-4.8-2.2-6.6-3.8
			c-1.8-1.6-3.2-3.5-4.1-5.7c-1-2.2-1.4-4.5-1.4-7c0-3.3,0.8-6.4,2.4-9.2s3.9-5,6.8-6.7c3-1.7,6.4-2.5,10.2-2.5
			c3.7,0,6.9,0.8,9.5,2.4s4.5,3.7,5.7,6.3C558.3,309.8,558.9,312.6,558.9,315.5z M548.8,311.7c0-6.2-2.5-9.3-7.4-9.3
			c-2.4,0-4.2,0.9-5.5,2.6s-2,4-2.1,6.8H548.8z"/>
		<path class="st12" d="M607.5,316.5c0,2.6-0.5,5.1-1.4,7.3c-1,2.3-2.3,4.2-4,5.9c-1.7,1.7-3.7,2.9-5.9,3.8s-4.6,1.3-7,1.3
			c-2.9,0-5.4-0.6-7.5-1.7c-2.1-1.1-3.8-2.6-5.2-4.4c-2.5,2.5-4.3,4.5-5.4,6.1h-3.2v-45.3c0-1.6-0.2-2.7-0.6-3.4
			c-0.4-0.7-1-1.2-1.8-1.4c-0.9-0.2-2.2-0.3-4-0.4v-3.7l16.9-3.6v26.5c1.4-1.3,3-2.4,4.8-3.4c1.8-1,4.2-1.5,7.2-1.5
			c2.8,0,5.2,0.5,7.4,1.5c2.2,1,4,2.4,5.4,4.1c1.4,1.7,2.5,3.6,3.2,5.7C607.1,312,607.5,314.2,607.5,316.5z M596.1,316.1
			c0-3.4-0.6-6.4-1.7-9c-1.1-2.6-3.4-3.9-6.7-3.9c-1.2,0-2.4,0.2-3.5,0.7s-2.2,1.1-3.2,1.9c-1,0.8-1.9,1.8-2.8,2.9v16.7
			c1.6,2.1,3.3,3.5,4.9,4.1c1.6,0.6,3.1,0.9,4.3,0.9c2.3,0,4.1-0.8,5.4-2.3c1.3-1.5,2.2-3.3,2.6-5.4S596.1,318.3,596.1,316.1z"/>
		<path class="st12" d="M656.1,324.8c0,2.1-0.4,3.8-1.3,5.3c-0.8,1.5-2,2.5-3.4,3.2c-1.4,0.7-3,1-4.8,1c-2.3,0-4.2-0.5-5.7-1.6
			c-1.5-1.1-2.4-2.4-2.7-3.9c-4.5,3.7-9.1,5.5-13.7,5.5c-2.9,0-5.4-0.7-7.2-2.1c-1.9-1.4-2.8-3.3-2.8-5.7c0-1.9,0.5-3.7,1.5-5.3
			c1-1.6,2.5-3,4.4-4.2s4.3-2.3,7-3.3c2.7-0.9,6.1-1.9,10.1-3v-2.3c0-1.9-0.5-3.5-1.4-4.6c-0.9-1.1-2.6-1.7-5-1.7
			c-2.1,0-3.6,0.4-4.5,1.3s-1.5,2.2-1.8,4c-0.2,1.3-0.6,2.3-1.2,3.1c-0.6,0.8-1.8,1.2-3.7,1.2c-1.1,0-2.2-0.3-3-1
			c-0.9-0.7-1.3-1.6-1.3-2.9c0-2.5,1.4-4.7,4.1-6.6c2.8-1.9,7-2.8,12.7-2.8c6,0,10.1,1,12.4,3c2.2,2,3.4,4.7,3.4,8.1v12.9
			c0,1.6,0,2.8,0.1,3.6s0.3,1.3,0.7,1.7c0.4,0.4,0.9,0.6,1.7,0.6c0.7,0,1.3-0.4,1.9-1.1s0.8-1.6,0.8-2.7H656.1z M637.3,325.2V315
			c-5.2,1.6-8.5,3.2-9.9,4.8s-2.1,3.1-2.1,4.6c0,1.3,0.4,2.3,1.1,3s1.8,1.1,3.2,1.1c1.5,0,2.8-0.3,4-0.9
			C634.8,327,636,326.2,637.3,325.2z"/>
		<path class="st12" d="M680.7,333.5h-23.5v-3.8h1.8c1.6,0,2.7-0.2,3.5-0.7c0.7-0.4,1.2-1,1.3-1.8c0.2-0.8,0.2-2,0.2-3.5v-34.9
			c0-2-0.5-3.2-1.4-3.8c-0.9-0.5-2.7-0.8-5.4-0.8v-3.8l17.3-3.5v46.7c0,1.5,0.1,2.7,0.2,3.5s0.6,1.4,1.3,1.8s1.9,0.7,3.5,0.7h1.2
			V333.5z"/>
		<path class="st12" d="M706.9,333.5h-23.5v-3.8h1.8c1.6,0,2.7-0.2,3.5-0.7c0.7-0.4,1.2-1,1.3-1.8c0.2-0.8,0.2-2,0.2-3.5v-34.9
			c0-2-0.5-3.2-1.4-3.8c-0.9-0.5-2.7-0.8-5.4-0.8v-3.8l17.3-3.5v46.7c0,1.5,0.1,2.7,0.2,3.5s0.6,1.4,1.3,1.8s1.9,0.7,3.5,0.7h1.2
			V333.5z"/>
		<path class="st12" d="M745.8,323.7c0,2.3-0.7,4.4-2.1,6c-1.4,1.7-3.3,2.9-5.8,3.8s-5.2,1.3-8.4,1.3c-2.2,0-4.3-0.2-6.5-0.6
			s-4.1-1.1-5.7-1.9l-1.6,2.3h-3.2l-0.4-10.6h3.4c0.6,1.8,2,3.5,4.1,4.9c2.2,1.5,5.3,2.2,9.4,2.2c1,0,2.2-0.1,3.3-0.2
			c1.2-0.2,2.3-0.6,3.5-1.2s1.7-1.7,1.7-3.2c0-1.2-0.6-2.1-1.7-2.7c-1.1-0.6-3.2-1.2-6.4-2c-3.8-1-6.8-1.9-9.2-2.7s-4.4-2.1-6.1-3.7
			c-1.7-1.6-2.5-3.7-2.5-6.2c0-3.2,1.5-5.8,4.4-7.7c3-1.9,6.8-2.8,11.6-2.8c3,0,5.4,0.2,7.2,0.7c1.8,0.5,3.3,1,4.5,1.6l1-2.1h3.3
			v9.5h-3.4c-0.3-1.1-1-2.1-2-3.1c-1.1-0.9-2.5-1.6-4.2-2.1c-1.8-0.5-3.8-0.8-6.1-0.8c-1.9,0-3.8,0.2-5.7,0.6
			c-1.9,0.4-2.8,1.4-2.8,2.9c0,0.6,0.2,1.1,0.6,1.6c0.4,0.4,1,0.8,1.9,1.1c0.9,0.4,2.5,0.8,4.7,1.4c2.3,0.6,3.6,0.9,4,1
			c4.4,1.1,8.1,2.5,10.9,4.1C744.4,316.8,745.8,319.6,745.8,323.7z"/>
	</g>
	<g>
		<path class="st11" d="M92.4,305c0-42,34.1-76.1,76.1-76.1c25.1,0,47.4,12.2,61.2,30.9C216,232.7,187.9,214,155.4,214
			c-46.1,0-83.4,37.4-83.4,83.4s37.4,83.4,83.4,83.4c1.8,0,3.5-0.1,5.2-0.2C122.3,376.8,92.4,344.4,92.4,305z"/>
	</g>
	<circle class="st13" cx="168.6" cy="304.6" r="65.9"/>
	<circle class="st14" cx="202.1" cy="305.1" r="15.7"/>
</g>
</svg>
