<?xml version="1.0" encoding="utf-8"?>
<!-- Generator: Adobe Illustrator 24.0.1, SVG Export Plug-In . SVG Version: 6.00 Build 0)  -->
<svg version="1.1" id="Calque_1" xmlns="http://www.w3.org/2000/svg" xmlns:xlink="http://www.w3.org/1999/xlink" x="0px" y="0px"
	 viewBox="0 0 389.3 147" style="enable-background:new 0 0 389.3 147;" xml:space="preserve">
<style type="text/css">
	.st0{fill:#59539F;}
	.st1{fill:#58539E;}
	.st2{fill:#EAEAEB;}
	.st3{fill:#9E9E9E;}
	.st4{fill:#EDEDED;}
	.st5{font-family:'Roboto-Bold';}
	.st6{font-size:72.4876px;}
	.st7{font-family:'Roboto-Regular';}
	.st8{letter-spacing:-3;}
	.st9{font-size:24.4622px;}
</style>
<title>HESTIALABS_logo</title>
<path class="st0" d="M56.8,125.8"/>
<path class="st1" d="M56.8,118L56.8,118L56.8,118L56.8,118z"/>
<path class="st2" d="M126.8,38.2c-7.4,11.4-22.6,14.6-34,7.2c-1.1-0.7-2.2-1.6-3.2-2.5c0,0-0.2-0.2-0.5-0.4c-1.5-1.3-6.5-5-12.7-4
	c-2,0.3-3.9,0.8-6.8,1.8c-2,0.7-3,1.1-4.7,1.8c-7.8,3.3-7.4,9.8-8,12.3l0,0c-0.3,1.8-0.8,3.6-1.5,5.4c-0.4,1-0.8,1.9-1.3,2.8
	c-0.9,2.7-5.7,10.1-0.2,20.5c1.2,2.2,2.9,5.7,4.3,8.2c2.1,3.5,2.7,4.6,4.8,7.1c6.7,7.7,12.4,6.9,14.6,7.7c9.5,2.3,15.3,11.8,13,21.3
	s-11.8,15.3-21.3,13s-15.3-11.8-13-21.3c0.1-0.4,0.2-0.8,0.3-1.1l0,0c0,0,0,0,0-0.1c0,0,0,0,0-0.1v-0.1c0-0.1,0.1-0.2,0.1-0.4l0,0
	c0.5-1.9,1.6-7.6-1-14.5c-1-2.6-2-4.9-4.2-8.4c-1.1-1.8-2.4-3.8-4.6-7c-6.7-9.6-14.2-8.9-17-9.3c-3.9,0.2-8-0.4-11.9-1.9
	C3.6,70.6-3.8,54,1.9,39.2S24.2,17,39,22.7c3.3,1.3,6.2,3,8.6,5.2c0.2,0.1,0.3,0.3,0.5,0.5c0.1,0.1,0.2,0.2,0.4,0.3
	c0.2,0.2,0.3,0.3,0.5,0.5c2.5,2.3,6.9,5.9,13.6,4.4c1.8-0.4,2.9-0.7,4.9-1.2c2.9-0.8,4.7-1.6,6.5-2.4c5.7-2.7,7.7-9,8.2-10.9
	c0-0.1,0-0.1,0-0.2s0-0.2,0-0.2l0,0v-0.1c0.6-2.5,1.7-4.9,3.2-7.2C93,0,108.2-3.2,119.6,4.2C130.9,11.6,134.2,26.8,126.8,38.2z"/>
<ellipse class="st3" cx="80.8" cy="72" rx="14.1" ry="14"/>
<text transform="matrix(1 0 0 1 98.0473 111.83)"><tspan x="0" y="0" class="st4 st5 st6">Hesti</tspan><tspan x="167.8" y="0" class="st4 st5 st6">a</tspan><tspan x="206.3" y="0" class="st4 st7 st6 st8">.ai</tspan></text>
<text transform="matrix(1.0098 0 0 1 101.5957 140.0997)" class="st4 st7 st9">sustainable data solutions</text>
</svg>
